%TF.GenerationSoftware,KiCad,Pcbnew,9.0.7*%
%TF.CreationDate,2026-03-31T12:49:37+02:00*%
%TF.ProjectId,VolvocineWithCurrentSensorV4,566f6c76-6f63-4696-9e65-576974684375,rev?*%
%TF.SameCoordinates,Original*%
%TF.FileFunction,Copper,L2,Bot*%
%TF.FilePolarity,Positive*%
%FSLAX46Y46*%
G04 Gerber Fmt 4.6, Leading zero omitted, Abs format (unit mm)*
G04 Created by KiCad (PCBNEW 9.0.7) date 2026-03-31 12:49:37*
%MOMM*%
%LPD*%
G01*
G04 APERTURE LIST*
%TA.AperFunction,ComponentPad*%
%ADD10R,1.700000X1.700000*%
%TD*%
%TA.AperFunction,ComponentPad*%
%ADD11C,1.700000*%
%TD*%
%TA.AperFunction,ViaPad*%
%ADD12C,0.600000*%
%TD*%
%TA.AperFunction,Conductor*%
%ADD13C,0.600000*%
%TD*%
%TA.AperFunction,Conductor*%
%ADD14C,0.300000*%
%TD*%
G04 APERTURE END LIST*
D10*
%TO.P,J5,1,Pin_1*%
%TO.N,Net-(J5-Pin_1)*%
X63713700Y-65278000D03*
D11*
%TO.P,J5,2,Pin_2*%
%TO.N,GND*%
X61173700Y-65278000D03*
%TD*%
D10*
%TO.P,+  -,1,Pin_1*%
%TO.N,GND*%
X81788000Y-76200000D03*
D11*
%TO.P,+  -,2,Pin_2*%
%TO.N,Net-(ServoMotor1-Pin_2)*%
X79248000Y-76200000D03*
%TO.P,+  -,3,Pin_3*%
%TO.N,Net-(J2-Pin_1)*%
X76708000Y-76200000D03*
%TD*%
D10*
%TO.P,J4,1,Pin_1*%
%TO.N,Net-(J2-Pin_5)*%
X73279000Y-66294000D03*
D11*
%TO.P,J4,2,Pin_2*%
%TO.N,+3.3V*%
X70739000Y-66294000D03*
%TD*%
D10*
%TO.P,J6,1,Pin_1*%
%TO.N,Net-(D2-K)*%
X67310000Y-78740000D03*
D11*
%TO.P,J6,2,Pin_2*%
%TO.N,GND*%
X67310000Y-76200000D03*
%TO.P,J6,3,Pin_3*%
%TO.N,unconnected-(J6-Pin_3-Pad3)*%
X67310000Y-73660000D03*
%TO.P,J6,4,Pin_4*%
%TO.N,+3.3V*%
X67310000Y-71120000D03*
%TO.P,J6,5,Pin_5*%
%TO.N,unconnected-(J6-Pin_5-Pad5)*%
X67310000Y-68580000D03*
%TO.P,J6,6,Pin_6*%
%TO.N,Net-(J3-Pin_3)*%
X67310000Y-66040000D03*
%TO.P,J6,7,Pin_7*%
%TO.N,GND*%
X67310000Y-63500000D03*
%TO.P,J6,8,Pin_8*%
%TO.N,Net-(J3-Pin_1)*%
X67310000Y-60960000D03*
%TO.P,J6,9,Pin_9*%
%TO.N,unconnected-(J6-Pin_9-Pad9)*%
X67310000Y-58420000D03*
%TO.P,J6,10,Pin_10*%
%TO.N,unconnected-(J6-Pin_10-Pad10)*%
X67310000Y-55880000D03*
%TO.P,J6,11,Pin_11*%
%TO.N,unconnected-(J6-Pin_11-Pad11)*%
X67310000Y-53340000D03*
%TO.P,J6,12,Pin_12*%
%TO.N,GND*%
X67310000Y-50800000D03*
%TD*%
D10*
%TO.P,J3,1,Pin_1*%
%TO.N,Net-(J3-Pin_1)*%
X70890000Y-56769000D03*
D11*
%TO.P,J3,2,Pin_2*%
%TO.N,+3.3V*%
X73430000Y-56769000D03*
%TO.P,J3,3,Pin_3*%
%TO.N,Net-(J3-Pin_3)*%
X75970000Y-56769000D03*
%TO.P,J3,4,Pin_4*%
%TO.N,+3.3V*%
X78510000Y-56769000D03*
%TD*%
D10*
%TO.P,J2,1,Pin_1*%
%TO.N,Net-(J2-Pin_1)*%
X85075000Y-78747000D03*
D11*
%TO.P,J2,2,Pin_2*%
%TO.N,GND*%
X85075000Y-76207000D03*
%TO.P,J2,3,Pin_3*%
%TO.N,unconnected-(J2-Pin_3-Pad3)*%
X85075000Y-73667000D03*
%TO.P,J2,4,Pin_4*%
%TO.N,unconnected-(J2-Pin_4-Pad4)*%
X85075000Y-71127000D03*
%TO.P,J2,5,Pin_5*%
%TO.N,Net-(J2-Pin_5)*%
X85075000Y-68587000D03*
%TO.P,J2,6,Pin_6*%
%TO.N,unconnected-(J2-Pin_6-Pad6)*%
X85075000Y-66047000D03*
%TO.P,J2,7,Pin_7*%
%TO.N,GND*%
X85075000Y-63507000D03*
%TO.P,J2,8,Pin_8*%
%TO.N,Net-(J2-Pin_8)*%
X85075000Y-60967000D03*
%TO.P,J2,9,Pin_9*%
%TO.N,Net-(J2-Pin_9)*%
X85075000Y-58427000D03*
%TO.P,J2,10,Pin_10*%
%TO.N,unconnected-(J2-Pin_10-Pad10)*%
X85075000Y-55887000D03*
%TO.P,J2,11,Pin_11*%
%TO.N,unconnected-(J2-Pin_11-Pad11)*%
X85075000Y-53347000D03*
%TO.P,J2,12,Pin_12*%
%TO.N,GND*%
X85075000Y-50807000D03*
%TD*%
D12*
%TO.N,+5V*%
X73660000Y-63500000D03*
X82004000Y-54864000D03*
X79248000Y-54864000D03*
X77978000Y-64008000D03*
%TO.N,Net-(D2-A)*%
X72390000Y-51626000D03*
X64841706Y-61838181D03*
X72136000Y-53340000D03*
X65532000Y-61722000D03*
%TD*%
D13*
%TO.N,+5V*%
X81534000Y-55334000D02*
X81534000Y-60452000D01*
X80264000Y-55077000D02*
X80051000Y-54864000D01*
X80051000Y-54864000D02*
X79248000Y-54864000D01*
X74930000Y-63500000D02*
X80264000Y-58166000D01*
X73660000Y-63500000D02*
X74930000Y-63500000D01*
X82004000Y-54864000D02*
X81534000Y-55334000D01*
X81534000Y-60452000D02*
X77978000Y-64008000D01*
X80264000Y-58166000D02*
X80264000Y-55077000D01*
%TO.N,GND*%
X69088000Y-52578000D02*
X67310000Y-50800000D01*
X61173700Y-63540300D02*
X61173700Y-65278000D01*
X61214000Y-63500000D02*
X61173700Y-63540300D01*
X69088000Y-61722000D02*
X69088000Y-52578000D01*
X67310000Y-63500000D02*
X61214000Y-63500000D01*
X82804000Y-61214000D02*
X85075000Y-63485000D01*
X85075000Y-63485000D02*
X85075000Y-63507000D01*
X85075000Y-50807000D02*
X85075000Y-50815000D01*
X82804000Y-53086000D02*
X82804000Y-61214000D01*
X85075000Y-50815000D02*
X82804000Y-53086000D01*
X67310000Y-63500000D02*
X69088000Y-61722000D01*
%TO.N,+3.3V*%
X73430000Y-59412000D02*
X73430000Y-56769000D01*
X75081000Y-58420000D02*
X73430000Y-56769000D01*
X76859000Y-58420000D02*
X75081000Y-58420000D01*
X70612000Y-62230000D02*
X73430000Y-59412000D01*
D14*
X70739000Y-66294000D02*
X70612000Y-66167000D01*
D13*
X78510000Y-56769000D02*
X76859000Y-58420000D01*
X70612000Y-66167000D02*
X70612000Y-62230000D01*
%TO.N,Net-(J2-Pin_5)*%
X85068000Y-68580000D02*
X85075000Y-68587000D01*
X75565000Y-68580000D02*
X85068000Y-68580000D01*
X73279000Y-66294000D02*
X75565000Y-68580000D01*
%TO.N,Net-(J2-Pin_1)*%
X85075000Y-78747000D02*
X78747000Y-78747000D01*
X76708000Y-76708000D02*
X76708000Y-76200000D01*
X78747000Y-78747000D02*
X76708000Y-76708000D01*
%TO.N,Net-(D2-A)*%
X72136000Y-53340000D02*
X72390000Y-53086000D01*
X66040000Y-49276000D02*
X70040000Y-49276000D01*
X65024000Y-50292000D02*
X66040000Y-49276000D01*
D14*
X65415819Y-61838181D02*
X65532000Y-61722000D01*
D13*
X72390000Y-53086000D02*
X72390000Y-51626000D01*
X70040000Y-49276000D02*
X72390000Y-51626000D01*
X64841706Y-61838181D02*
X65415819Y-61838181D01*
X64841706Y-61838181D02*
X65024000Y-61655887D01*
X65024000Y-61655887D02*
X65024000Y-50292000D01*
%TD*%
%TA.AperFunction,Conductor*%
%TO.N,GND*%
G36*
X64145295Y-50451326D02*
G01*
X64200325Y-50494378D01*
X64223344Y-50560347D01*
X64223500Y-50566560D01*
X64223500Y-61284914D01*
X64203815Y-61351953D01*
X64202602Y-61353805D01*
X64132315Y-61458995D01*
X64132308Y-61459008D01*
X64071970Y-61604679D01*
X64071967Y-61604691D01*
X64041206Y-61759334D01*
X64041206Y-61917027D01*
X64071967Y-62071670D01*
X64071970Y-62071682D01*
X64132308Y-62217353D01*
X64132315Y-62217366D01*
X64219916Y-62348469D01*
X64219919Y-62348473D01*
X64331413Y-62459967D01*
X64331417Y-62459970D01*
X64462520Y-62547571D01*
X64462533Y-62547578D01*
X64608204Y-62607916D01*
X64608209Y-62607918D01*
X64762859Y-62638680D01*
X64762862Y-62638681D01*
X64762864Y-62638681D01*
X65494663Y-62638681D01*
X65494664Y-62638680D01*
X65649316Y-62607918D01*
X65794998Y-62547575D01*
X65926108Y-62459970D01*
X66037608Y-62348470D01*
X66037610Y-62348466D01*
X66041924Y-62344153D01*
X66042286Y-62343791D01*
X66042289Y-62343789D01*
X66153789Y-62232289D01*
X66241394Y-62101179D01*
X66260243Y-62055672D01*
X66274403Y-62038100D01*
X66284650Y-62017987D01*
X66295905Y-62011416D01*
X66304082Y-62001269D01*
X66325496Y-61994141D01*
X66344990Y-61982761D01*
X66358011Y-61983318D01*
X66370376Y-61979203D01*
X66392245Y-61984784D01*
X66414796Y-61985750D01*
X66432988Y-61995182D01*
X66438075Y-61996481D01*
X66446244Y-62001772D01*
X66447039Y-62002332D01*
X66602184Y-62115051D01*
X66619394Y-62123820D01*
X66626641Y-62128928D01*
X66643074Y-62149619D01*
X66662290Y-62167766D01*
X66664466Y-62176552D01*
X66670095Y-62183640D01*
X66672733Y-62209935D01*
X66679087Y-62235587D01*
X66676168Y-62244153D01*
X66677072Y-62253161D01*
X66665074Y-62276710D01*
X66656552Y-62301722D01*
X66648996Y-62308269D01*
X66645355Y-62315417D01*
X66631241Y-62323656D01*
X66611505Y-62340760D01*
X66602446Y-62345376D01*
X66602440Y-62345380D01*
X66548282Y-62384727D01*
X66548282Y-62384728D01*
X67180591Y-63017037D01*
X67117007Y-63034075D01*
X67002993Y-63099901D01*
X66909901Y-63192993D01*
X66844075Y-63307007D01*
X66827037Y-63370591D01*
X66194728Y-62738282D01*
X66194727Y-62738282D01*
X66155380Y-62792439D01*
X66058904Y-62981782D01*
X65993242Y-63183869D01*
X65993242Y-63183872D01*
X65960000Y-63393753D01*
X65960000Y-63606246D01*
X65993242Y-63816127D01*
X65993242Y-63816130D01*
X66058904Y-64018217D01*
X66155375Y-64207550D01*
X66194728Y-64261716D01*
X66827037Y-63629408D01*
X66844075Y-63692993D01*
X66909901Y-63807007D01*
X67002993Y-63900099D01*
X67117007Y-63965925D01*
X67180590Y-63982962D01*
X66548282Y-64615269D01*
X66548282Y-64615270D01*
X66602452Y-64654626D01*
X66602451Y-64654626D01*
X66611495Y-64659234D01*
X66662292Y-64707208D01*
X66679087Y-64775029D01*
X66656550Y-64841164D01*
X66611499Y-64880202D01*
X66602182Y-64884949D01*
X66430213Y-65009890D01*
X66279890Y-65160213D01*
X66154951Y-65332179D01*
X66058444Y-65521585D01*
X65992753Y-65723760D01*
X65981277Y-65796217D01*
X65959500Y-65933713D01*
X65959500Y-66146287D01*
X65992754Y-66356243D01*
X66055300Y-66548740D01*
X66058444Y-66558414D01*
X66154951Y-66747820D01*
X66279890Y-66919786D01*
X66430213Y-67070109D01*
X66602182Y-67195050D01*
X66610946Y-67199516D01*
X66661742Y-67247491D01*
X66678536Y-67315312D01*
X66655998Y-67381447D01*
X66610946Y-67420484D01*
X66602182Y-67424949D01*
X66430213Y-67549890D01*
X66279890Y-67700213D01*
X66154951Y-67872179D01*
X66058444Y-68061585D01*
X65992753Y-68263760D01*
X65959500Y-68473713D01*
X65959500Y-68686287D01*
X65992754Y-68896243D01*
X65995028Y-68903243D01*
X66058444Y-69098414D01*
X66154951Y-69287820D01*
X66279890Y-69459786D01*
X66430213Y-69610109D01*
X66602182Y-69735050D01*
X66610946Y-69739516D01*
X66661742Y-69787491D01*
X66678536Y-69855312D01*
X66655998Y-69921447D01*
X66610946Y-69960484D01*
X66602182Y-69964949D01*
X66430213Y-70089890D01*
X66279890Y-70240213D01*
X66154951Y-70412179D01*
X66058444Y-70601585D01*
X65992753Y-70803760D01*
X65959500Y-71013713D01*
X65959500Y-71226287D01*
X65992754Y-71436243D01*
X65995028Y-71443243D01*
X66058444Y-71638414D01*
X66154951Y-71827820D01*
X66279890Y-71999786D01*
X66430213Y-72150109D01*
X66602182Y-72275050D01*
X66610946Y-72279516D01*
X66661742Y-72327491D01*
X66678536Y-72395312D01*
X66655998Y-72461447D01*
X66610946Y-72500484D01*
X66602182Y-72504949D01*
X66430213Y-72629890D01*
X66279890Y-72780213D01*
X66154951Y-72952179D01*
X66058444Y-73141585D01*
X65992753Y-73343760D01*
X65959500Y-73553713D01*
X65959500Y-73766286D01*
X65992527Y-73974814D01*
X65992754Y-73976243D01*
X66033650Y-74102108D01*
X66058444Y-74178414D01*
X66154951Y-74367820D01*
X66279890Y-74539786D01*
X66430213Y-74690109D01*
X66602179Y-74815048D01*
X66602181Y-74815049D01*
X66602184Y-74815051D01*
X66611493Y-74819794D01*
X66662290Y-74867766D01*
X66679087Y-74935587D01*
X66656552Y-75001722D01*
X66611505Y-75040760D01*
X66602446Y-75045376D01*
X66602440Y-75045380D01*
X66548282Y-75084727D01*
X66548282Y-75084728D01*
X67180591Y-75717037D01*
X67117007Y-75734075D01*
X67002993Y-75799901D01*
X66909901Y-75892993D01*
X66844075Y-76007007D01*
X66827037Y-76070591D01*
X66194728Y-75438282D01*
X66194727Y-75438282D01*
X66155380Y-75492439D01*
X66058904Y-75681782D01*
X65993242Y-75883869D01*
X65993242Y-75883872D01*
X65960000Y-76093753D01*
X65960000Y-76306246D01*
X65993242Y-76516127D01*
X65993242Y-76516130D01*
X66058904Y-76718217D01*
X66155375Y-76907550D01*
X66194728Y-76961716D01*
X66827037Y-76329408D01*
X66844075Y-76392993D01*
X66909901Y-76507007D01*
X67002993Y-76600099D01*
X67117007Y-76665925D01*
X67180590Y-76682962D01*
X66510370Y-77353181D01*
X66449047Y-77386666D01*
X66422698Y-77389500D01*
X66412134Y-77389500D01*
X66412123Y-77389501D01*
X66352516Y-77395908D01*
X66217671Y-77446202D01*
X66217664Y-77446206D01*
X66102455Y-77532452D01*
X66102452Y-77532455D01*
X66016206Y-77647664D01*
X66016202Y-77647671D01*
X65965908Y-77782517D01*
X65960185Y-77835754D01*
X65959501Y-77842123D01*
X65959500Y-77842135D01*
X65959500Y-79637870D01*
X65959501Y-79637876D01*
X65965908Y-79697483D01*
X66016998Y-79834463D01*
X66017021Y-79834489D01*
X66017028Y-79834543D01*
X66019303Y-79840641D01*
X66017976Y-79841135D01*
X66021388Y-79864863D01*
X66027910Y-79894859D01*
X66026315Y-79899131D01*
X66026965Y-79903647D01*
X66014213Y-79931569D01*
X66003486Y-79960321D01*
X65999835Y-79963053D01*
X65997940Y-79967203D01*
X65972115Y-79983799D01*
X65947548Y-80002186D01*
X65941927Y-80003199D01*
X65939162Y-80004977D01*
X65904227Y-80010000D01*
X65837362Y-80010000D01*
X65770323Y-79990315D01*
X65749681Y-79973681D01*
X59472319Y-73696319D01*
X59438834Y-73634996D01*
X59436000Y-73608638D01*
X59436000Y-65171753D01*
X59823700Y-65171753D01*
X59823700Y-65384246D01*
X59856942Y-65594127D01*
X59856942Y-65594130D01*
X59922604Y-65796217D01*
X60019075Y-65985550D01*
X60058428Y-66039716D01*
X60690737Y-65407408D01*
X60707775Y-65470993D01*
X60773601Y-65585007D01*
X60866693Y-65678099D01*
X60980707Y-65743925D01*
X61044290Y-65760962D01*
X60411982Y-66393269D01*
X60411982Y-66393270D01*
X60466149Y-66432624D01*
X60655482Y-66529095D01*
X60857570Y-66594757D01*
X61067454Y-66628000D01*
X61279946Y-66628000D01*
X61489827Y-66594757D01*
X61489830Y-66594757D01*
X61691917Y-66529095D01*
X61881254Y-66432622D01*
X61935416Y-66393270D01*
X61935417Y-66393270D01*
X61303108Y-65760962D01*
X61366693Y-65743925D01*
X61480707Y-65678099D01*
X61573799Y-65585007D01*
X61639625Y-65470993D01*
X61656662Y-65407408D01*
X62326881Y-66077628D01*
X62360366Y-66138951D01*
X62363200Y-66165300D01*
X62363200Y-66175865D01*
X62363201Y-66175876D01*
X62369608Y-66235483D01*
X62419902Y-66370328D01*
X62419906Y-66370335D01*
X62506152Y-66485544D01*
X62506155Y-66485547D01*
X62621364Y-66571793D01*
X62621371Y-66571797D01*
X62756217Y-66622091D01*
X62756216Y-66622091D01*
X62763144Y-66622835D01*
X62815827Y-66628500D01*
X64611572Y-66628499D01*
X64671183Y-66622091D01*
X64806031Y-66571796D01*
X64921246Y-66485546D01*
X65007496Y-66370331D01*
X65057791Y-66235483D01*
X65064200Y-66175873D01*
X65064199Y-65278000D01*
X65064199Y-64380129D01*
X65064198Y-64380123D01*
X65064197Y-64380116D01*
X65057791Y-64320517D01*
X65050325Y-64300500D01*
X65007497Y-64185671D01*
X65007493Y-64185664D01*
X64921247Y-64070455D01*
X64921244Y-64070452D01*
X64806035Y-63984206D01*
X64806028Y-63984202D01*
X64671182Y-63933908D01*
X64671183Y-63933908D01*
X64611583Y-63927501D01*
X64611581Y-63927500D01*
X64611573Y-63927500D01*
X64611564Y-63927500D01*
X62815829Y-63927500D01*
X62815823Y-63927501D01*
X62756216Y-63933908D01*
X62621371Y-63984202D01*
X62621364Y-63984206D01*
X62506155Y-64070452D01*
X62506152Y-64070455D01*
X62419906Y-64185664D01*
X62419902Y-64185671D01*
X62369608Y-64320517D01*
X62363201Y-64380116D01*
X62363201Y-64380123D01*
X62363200Y-64380135D01*
X62363200Y-64390690D01*
X62343515Y-64457729D01*
X62326881Y-64478371D01*
X61656662Y-65148590D01*
X61639625Y-65085007D01*
X61573799Y-64970993D01*
X61480707Y-64877901D01*
X61366693Y-64812075D01*
X61303109Y-64795037D01*
X61935416Y-64162728D01*
X61881250Y-64123375D01*
X61691917Y-64026904D01*
X61489829Y-63961242D01*
X61279946Y-63928000D01*
X61067454Y-63928000D01*
X60857572Y-63961242D01*
X60857569Y-63961242D01*
X60655482Y-64026904D01*
X60466139Y-64123380D01*
X60411982Y-64162727D01*
X60411982Y-64162728D01*
X61044291Y-64795037D01*
X60980707Y-64812075D01*
X60866693Y-64877901D01*
X60773601Y-64970993D01*
X60707775Y-65085007D01*
X60690737Y-65148591D01*
X60058428Y-64516282D01*
X60058427Y-64516282D01*
X60019080Y-64570439D01*
X59922604Y-64759782D01*
X59856942Y-64961869D01*
X59856942Y-64961872D01*
X59823700Y-65171753D01*
X59436000Y-65171753D01*
X59436000Y-54916914D01*
X59455685Y-54849875D01*
X59474200Y-54827390D01*
X64013705Y-50477032D01*
X64075725Y-50444861D01*
X64145295Y-50451326D01*
G37*
%TD.AperFunction*%
%TA.AperFunction,Conductor*%
G36*
X86811039Y-49041685D02*
G01*
X86856794Y-49094489D01*
X86868000Y-49146000D01*
X86868000Y-79886000D01*
X86848315Y-79953039D01*
X86795511Y-79998794D01*
X86744000Y-80010000D01*
X86483734Y-80010000D01*
X86416695Y-79990315D01*
X86370940Y-79937511D01*
X86360996Y-79868353D01*
X86367552Y-79842667D01*
X86419091Y-79704482D01*
X86425500Y-79644873D01*
X86425499Y-77849128D01*
X86419091Y-77789517D01*
X86416480Y-77782517D01*
X86368797Y-77654671D01*
X86368793Y-77654664D01*
X86282547Y-77539455D01*
X86282544Y-77539452D01*
X86167335Y-77453206D01*
X86167328Y-77453202D01*
X86032482Y-77402908D01*
X86032483Y-77402908D01*
X85972883Y-77396501D01*
X85972881Y-77396500D01*
X85972873Y-77396500D01*
X85972865Y-77396500D01*
X85962309Y-77396500D01*
X85895270Y-77376815D01*
X85874628Y-77360181D01*
X85204408Y-76689962D01*
X85267993Y-76672925D01*
X85382007Y-76607099D01*
X85475099Y-76514007D01*
X85540925Y-76399993D01*
X85557962Y-76336408D01*
X86190270Y-76968717D01*
X86190270Y-76968716D01*
X86229622Y-76914554D01*
X86326095Y-76725217D01*
X86391757Y-76523130D01*
X86391757Y-76523127D01*
X86425000Y-76313246D01*
X86425000Y-76100753D01*
X86391757Y-75890872D01*
X86391757Y-75890869D01*
X86326095Y-75688782D01*
X86229624Y-75499449D01*
X86190270Y-75445282D01*
X86190269Y-75445282D01*
X85557962Y-76077590D01*
X85540925Y-76014007D01*
X85475099Y-75899993D01*
X85382007Y-75806901D01*
X85267993Y-75741075D01*
X85204409Y-75724037D01*
X85836716Y-75091728D01*
X85782547Y-75052373D01*
X85782547Y-75052372D01*
X85773500Y-75047763D01*
X85722706Y-74999788D01*
X85705912Y-74931966D01*
X85728451Y-74865832D01*
X85773508Y-74826793D01*
X85782816Y-74822051D01*
X85862007Y-74764515D01*
X85954786Y-74697109D01*
X85954788Y-74697106D01*
X85954792Y-74697104D01*
X86105104Y-74546792D01*
X86105106Y-74546788D01*
X86105109Y-74546786D01*
X86230048Y-74374820D01*
X86230047Y-74374820D01*
X86230051Y-74374816D01*
X86326557Y-74185412D01*
X86392246Y-73983243D01*
X86425500Y-73773287D01*
X86425500Y-73560713D01*
X86392246Y-73350757D01*
X86326557Y-73148588D01*
X86230051Y-72959184D01*
X86230049Y-72959181D01*
X86230048Y-72959179D01*
X86105109Y-72787213D01*
X85954786Y-72636890D01*
X85782820Y-72511951D01*
X85782115Y-72511591D01*
X85774054Y-72507485D01*
X85723259Y-72459512D01*
X85706463Y-72391692D01*
X85728999Y-72325556D01*
X85774054Y-72286515D01*
X85782816Y-72282051D01*
X85804789Y-72266086D01*
X85954786Y-72157109D01*
X85954788Y-72157106D01*
X85954792Y-72157104D01*
X86105104Y-72006792D01*
X86105106Y-72006788D01*
X86105109Y-72006786D01*
X86230048Y-71834820D01*
X86230047Y-71834820D01*
X86230051Y-71834816D01*
X86326557Y-71645412D01*
X86392246Y-71443243D01*
X86425500Y-71233287D01*
X86425500Y-71020713D01*
X86392246Y-70810757D01*
X86326557Y-70608588D01*
X86230051Y-70419184D01*
X86230049Y-70419181D01*
X86230048Y-70419179D01*
X86105109Y-70247213D01*
X85954786Y-70096890D01*
X85782820Y-69971951D01*
X85782115Y-69971591D01*
X85774054Y-69967485D01*
X85723259Y-69919512D01*
X85706463Y-69851692D01*
X85728999Y-69785556D01*
X85774054Y-69746515D01*
X85782816Y-69742051D01*
X85804789Y-69726086D01*
X85954786Y-69617109D01*
X85954788Y-69617106D01*
X85954792Y-69617104D01*
X86105104Y-69466792D01*
X86105106Y-69466788D01*
X86105109Y-69466786D01*
X86230048Y-69294820D01*
X86230047Y-69294820D01*
X86230051Y-69294816D01*
X86326557Y-69105412D01*
X86392246Y-68903243D01*
X86425500Y-68693287D01*
X86425500Y-68480713D01*
X86392246Y-68270757D01*
X86326557Y-68068588D01*
X86230051Y-67879184D01*
X86230049Y-67879181D01*
X86230048Y-67879179D01*
X86105109Y-67707213D01*
X85954786Y-67556890D01*
X85782820Y-67431951D01*
X85782115Y-67431591D01*
X85774054Y-67427485D01*
X85723259Y-67379512D01*
X85706463Y-67311692D01*
X85728999Y-67245556D01*
X85774054Y-67206515D01*
X85782816Y-67202051D01*
X85817180Y-67177084D01*
X85954786Y-67077109D01*
X85954788Y-67077106D01*
X85954792Y-67077104D01*
X86105104Y-66926792D01*
X86105106Y-66926788D01*
X86105109Y-66926786D01*
X86230048Y-66754820D01*
X86230047Y-66754820D01*
X86230051Y-66754816D01*
X86326557Y-66565412D01*
X86392246Y-66363243D01*
X86425500Y-66153287D01*
X86425500Y-65940713D01*
X86392246Y-65730757D01*
X86326557Y-65528588D01*
X86230051Y-65339184D01*
X86230049Y-65339181D01*
X86230048Y-65339179D01*
X86105109Y-65167213D01*
X85954786Y-65016890D01*
X85782817Y-64891949D01*
X85773504Y-64887204D01*
X85722707Y-64839230D01*
X85705912Y-64771409D01*
X85728449Y-64705274D01*
X85773507Y-64666232D01*
X85782555Y-64661622D01*
X85836716Y-64622270D01*
X85836717Y-64622270D01*
X85204408Y-63989962D01*
X85267993Y-63972925D01*
X85382007Y-63907099D01*
X85475099Y-63814007D01*
X85540925Y-63699993D01*
X85557962Y-63636408D01*
X86190270Y-64268717D01*
X86190270Y-64268716D01*
X86229622Y-64214554D01*
X86326095Y-64025217D01*
X86391757Y-63823130D01*
X86391757Y-63823127D01*
X86425000Y-63613246D01*
X86425000Y-63400753D01*
X86391757Y-63190872D01*
X86391757Y-63190869D01*
X86326095Y-62988782D01*
X86229624Y-62799449D01*
X86190270Y-62745282D01*
X86190269Y-62745282D01*
X85557962Y-63377590D01*
X85540925Y-63314007D01*
X85475099Y-63199993D01*
X85382007Y-63106901D01*
X85267993Y-63041075D01*
X85204409Y-63024037D01*
X85836716Y-62391728D01*
X85782547Y-62352373D01*
X85782547Y-62352372D01*
X85773500Y-62347763D01*
X85722706Y-62299788D01*
X85705912Y-62231966D01*
X85728451Y-62165832D01*
X85773508Y-62126793D01*
X85782816Y-62122051D01*
X85874177Y-62055674D01*
X85954786Y-61997109D01*
X85954788Y-61997106D01*
X85954792Y-61997104D01*
X86105104Y-61846792D01*
X86105106Y-61846788D01*
X86105109Y-61846786D01*
X86230048Y-61674820D01*
X86230047Y-61674820D01*
X86230051Y-61674816D01*
X86326557Y-61485412D01*
X86392246Y-61283243D01*
X86425500Y-61073287D01*
X86425500Y-60860713D01*
X86392246Y-60650757D01*
X86326557Y-60448588D01*
X86230051Y-60259184D01*
X86230049Y-60259181D01*
X86230048Y-60259179D01*
X86105109Y-60087213D01*
X85954786Y-59936890D01*
X85782820Y-59811951D01*
X85782115Y-59811591D01*
X85774054Y-59807485D01*
X85723259Y-59759512D01*
X85706463Y-59691692D01*
X85728999Y-59625556D01*
X85774054Y-59586515D01*
X85782816Y-59582051D01*
X85908353Y-59490844D01*
X85954786Y-59457109D01*
X85954788Y-59457106D01*
X85954792Y-59457104D01*
X86105104Y-59306792D01*
X86105106Y-59306788D01*
X86105109Y-59306786D01*
X86230048Y-59134820D01*
X86230047Y-59134820D01*
X86230051Y-59134816D01*
X86326557Y-58945412D01*
X86392246Y-58743243D01*
X86425500Y-58533287D01*
X86425500Y-58320713D01*
X86392246Y-58110757D01*
X86326557Y-57908588D01*
X86230051Y-57719184D01*
X86230049Y-57719181D01*
X86230048Y-57719179D01*
X86105109Y-57547213D01*
X85954786Y-57396890D01*
X85782820Y-57271951D01*
X85782115Y-57271591D01*
X85774054Y-57267485D01*
X85723259Y-57219512D01*
X85706463Y-57151692D01*
X85728999Y-57085556D01*
X85774054Y-57046515D01*
X85782816Y-57042051D01*
X85804789Y-57026086D01*
X85954786Y-56917109D01*
X85954788Y-56917106D01*
X85954792Y-56917104D01*
X86105104Y-56766792D01*
X86105106Y-56766788D01*
X86105109Y-56766786D01*
X86230048Y-56594820D01*
X86230047Y-56594820D01*
X86230051Y-56594816D01*
X86326557Y-56405412D01*
X86392246Y-56203243D01*
X86425500Y-55993287D01*
X86425500Y-55780713D01*
X86392246Y-55570757D01*
X86326557Y-55368588D01*
X86230051Y-55179184D01*
X86230049Y-55179181D01*
X86230048Y-55179179D01*
X86105109Y-55007213D01*
X85954786Y-54856890D01*
X85782820Y-54731951D01*
X85782115Y-54731591D01*
X85774054Y-54727485D01*
X85723259Y-54679512D01*
X85706463Y-54611692D01*
X85728999Y-54545556D01*
X85774054Y-54506515D01*
X85782816Y-54502051D01*
X85907220Y-54411667D01*
X85954786Y-54377109D01*
X85954788Y-54377106D01*
X85954792Y-54377104D01*
X86105104Y-54226792D01*
X86105106Y-54226788D01*
X86105109Y-54226786D01*
X86230048Y-54054820D01*
X86230047Y-54054820D01*
X86230051Y-54054816D01*
X86326557Y-53865412D01*
X86392246Y-53663243D01*
X86425500Y-53453287D01*
X86425500Y-53240713D01*
X86392246Y-53030757D01*
X86326557Y-52828588D01*
X86230051Y-52639184D01*
X86230049Y-52639181D01*
X86230048Y-52639179D01*
X86105109Y-52467213D01*
X85954786Y-52316890D01*
X85782817Y-52191949D01*
X85773504Y-52187204D01*
X85722707Y-52139230D01*
X85705912Y-52071409D01*
X85728449Y-52005274D01*
X85773507Y-51966232D01*
X85782555Y-51961622D01*
X85836716Y-51922270D01*
X85836717Y-51922270D01*
X85204408Y-51289962D01*
X85267993Y-51272925D01*
X85382007Y-51207099D01*
X85475099Y-51114007D01*
X85540925Y-50999993D01*
X85557962Y-50936408D01*
X86190270Y-51568717D01*
X86190270Y-51568716D01*
X86229622Y-51514554D01*
X86326095Y-51325217D01*
X86391757Y-51123130D01*
X86391757Y-51123127D01*
X86425000Y-50913246D01*
X86425000Y-50700753D01*
X86391757Y-50490872D01*
X86391757Y-50490869D01*
X86326095Y-50288782D01*
X86229624Y-50099449D01*
X86190270Y-50045282D01*
X86190269Y-50045282D01*
X85557962Y-50677590D01*
X85540925Y-50614007D01*
X85475099Y-50499993D01*
X85382007Y-50406901D01*
X85267993Y-50341075D01*
X85204409Y-50324037D01*
X85836716Y-49691728D01*
X85782550Y-49652375D01*
X85593217Y-49555904D01*
X85391129Y-49490242D01*
X85181246Y-49457000D01*
X84968754Y-49457000D01*
X84758872Y-49490242D01*
X84758869Y-49490242D01*
X84556782Y-49555904D01*
X84367439Y-49652380D01*
X84313282Y-49691727D01*
X84313282Y-49691728D01*
X84945591Y-50324037D01*
X84882007Y-50341075D01*
X84767993Y-50406901D01*
X84674901Y-50499993D01*
X84609075Y-50614007D01*
X84592037Y-50677591D01*
X83959728Y-50045282D01*
X83959727Y-50045282D01*
X83920380Y-50099439D01*
X83823904Y-50288782D01*
X83758242Y-50490869D01*
X83758242Y-50490872D01*
X83725000Y-50700753D01*
X83725000Y-50913246D01*
X83758242Y-51123127D01*
X83758242Y-51123130D01*
X83823904Y-51325217D01*
X83920375Y-51514550D01*
X83959728Y-51568716D01*
X84592037Y-50936408D01*
X84609075Y-50999993D01*
X84674901Y-51114007D01*
X84767993Y-51207099D01*
X84882007Y-51272925D01*
X84945590Y-51289962D01*
X84313282Y-51922269D01*
X84313282Y-51922270D01*
X84367452Y-51961626D01*
X84367451Y-51961626D01*
X84376495Y-51966234D01*
X84427292Y-52014208D01*
X84444087Y-52082029D01*
X84421550Y-52148164D01*
X84376499Y-52187202D01*
X84367182Y-52191949D01*
X84195213Y-52316890D01*
X84044890Y-52467213D01*
X83919951Y-52639179D01*
X83823444Y-52828585D01*
X83757753Y-53030760D01*
X83736517Y-53164843D01*
X83724500Y-53240713D01*
X83724500Y-53453287D01*
X83726384Y-53465179D01*
X83756644Y-53656239D01*
X83757754Y-53663243D01*
X83821514Y-53859476D01*
X83823444Y-53865414D01*
X83919951Y-54054820D01*
X84044890Y-54226786D01*
X84195213Y-54377109D01*
X84367182Y-54502050D01*
X84375946Y-54506516D01*
X84426742Y-54554491D01*
X84443536Y-54622312D01*
X84420998Y-54688447D01*
X84375946Y-54727484D01*
X84367182Y-54731949D01*
X84195213Y-54856890D01*
X84044890Y-55007213D01*
X83919951Y-55179179D01*
X83823444Y-55368585D01*
X83757753Y-55570760D01*
X83724500Y-55780713D01*
X83724500Y-55993286D01*
X83756644Y-56196239D01*
X83757754Y-56203243D01*
X83821514Y-56399476D01*
X83823444Y-56405414D01*
X83919951Y-56594820D01*
X84044890Y-56766786D01*
X84195213Y-56917109D01*
X84367182Y-57042050D01*
X84375946Y-57046516D01*
X84426742Y-57094491D01*
X84443536Y-57162312D01*
X84420998Y-57228447D01*
X84375946Y-57267484D01*
X84367182Y-57271949D01*
X84195213Y-57396890D01*
X84044890Y-57547213D01*
X83919951Y-57719179D01*
X83823444Y-57908585D01*
X83757753Y-58110760D01*
X83724500Y-58320713D01*
X83724500Y-58533286D01*
X83756644Y-58736239D01*
X83757754Y-58743243D01*
X83821514Y-58939476D01*
X83823444Y-58945414D01*
X83919951Y-59134820D01*
X84044890Y-59306786D01*
X84195213Y-59457109D01*
X84367182Y-59582050D01*
X84375946Y-59586516D01*
X84426742Y-59634491D01*
X84443536Y-59702312D01*
X84420998Y-59768447D01*
X84375946Y-59807484D01*
X84367182Y-59811949D01*
X84195213Y-59936890D01*
X84044890Y-60087213D01*
X83919951Y-60259179D01*
X83823444Y-60448585D01*
X83757753Y-60650760D01*
X83724500Y-60860713D01*
X83724500Y-61073286D01*
X83756644Y-61276239D01*
X83757754Y-61283243D01*
X83821169Y-61478414D01*
X83823444Y-61485414D01*
X83919951Y-61674820D01*
X84044890Y-61846786D01*
X84195213Y-61997109D01*
X84367179Y-62122048D01*
X84367181Y-62122049D01*
X84367184Y-62122051D01*
X84376493Y-62126794D01*
X84427290Y-62174766D01*
X84444087Y-62242587D01*
X84421552Y-62308722D01*
X84376505Y-62347760D01*
X84367446Y-62352376D01*
X84367440Y-62352380D01*
X84313282Y-62391727D01*
X84313282Y-62391728D01*
X84945591Y-63024037D01*
X84882007Y-63041075D01*
X84767993Y-63106901D01*
X84674901Y-63199993D01*
X84609075Y-63314007D01*
X84592037Y-63377591D01*
X83959728Y-62745282D01*
X83959727Y-62745282D01*
X83920380Y-62799439D01*
X83823904Y-62988782D01*
X83758242Y-63190869D01*
X83758242Y-63190872D01*
X83725000Y-63400753D01*
X83725000Y-63613246D01*
X83758242Y-63823127D01*
X83758242Y-63823130D01*
X83823904Y-64025217D01*
X83920375Y-64214550D01*
X83959728Y-64268716D01*
X84592037Y-63636408D01*
X84609075Y-63699993D01*
X84674901Y-63814007D01*
X84767993Y-63907099D01*
X84882007Y-63972925D01*
X84945590Y-63989962D01*
X84313282Y-64622269D01*
X84313282Y-64622270D01*
X84367452Y-64661626D01*
X84367451Y-64661626D01*
X84376495Y-64666234D01*
X84427292Y-64714208D01*
X84444087Y-64782029D01*
X84421550Y-64848164D01*
X84376499Y-64887202D01*
X84367182Y-64891949D01*
X84195213Y-65016890D01*
X84044890Y-65167213D01*
X83919951Y-65339179D01*
X83823444Y-65528585D01*
X83757753Y-65730760D01*
X83724500Y-65940713D01*
X83724500Y-66153286D01*
X83756644Y-66356239D01*
X83757754Y-66363243D01*
X83821169Y-66558414D01*
X83823444Y-66565414D01*
X83919951Y-66754820D01*
X84044890Y-66926786D01*
X84195213Y-67077109D01*
X84367182Y-67202050D01*
X84375946Y-67206516D01*
X84426742Y-67254491D01*
X84443536Y-67322312D01*
X84420998Y-67388447D01*
X84375946Y-67427484D01*
X84367182Y-67431949D01*
X84195213Y-67556890D01*
X84044894Y-67707209D01*
X84044890Y-67707214D01*
X84029509Y-67728385D01*
X83974179Y-67771051D01*
X83929191Y-67779500D01*
X75947940Y-67779500D01*
X75880901Y-67759815D01*
X75860259Y-67743181D01*
X74665818Y-66548740D01*
X74632333Y-66487417D01*
X74629499Y-66461059D01*
X74629499Y-65396129D01*
X74629498Y-65396123D01*
X74628221Y-65384246D01*
X74623091Y-65336517D01*
X74621810Y-65333083D01*
X74572797Y-65201671D01*
X74572793Y-65201664D01*
X74486547Y-65086455D01*
X74486544Y-65086452D01*
X74371335Y-65000206D01*
X74371328Y-65000202D01*
X74236482Y-64949908D01*
X74236483Y-64949908D01*
X74176883Y-64943501D01*
X74176881Y-64943500D01*
X74176873Y-64943500D01*
X74176864Y-64943500D01*
X72381129Y-64943500D01*
X72381123Y-64943501D01*
X72321516Y-64949908D01*
X72186671Y-65000202D01*
X72186664Y-65000206D01*
X72071455Y-65086452D01*
X72071452Y-65086455D01*
X71985206Y-65201664D01*
X71985203Y-65201669D01*
X71936189Y-65333083D01*
X71894317Y-65389016D01*
X71828853Y-65413433D01*
X71760580Y-65398581D01*
X71732326Y-65377430D01*
X71618790Y-65263894D01*
X71618785Y-65263890D01*
X71463615Y-65151153D01*
X71420949Y-65095823D01*
X71412500Y-65050835D01*
X71412500Y-62612940D01*
X71432185Y-62545901D01*
X71448819Y-62525259D01*
X74051786Y-59922292D01*
X74051789Y-59922289D01*
X74139394Y-59791179D01*
X74199737Y-59645497D01*
X74230500Y-59490842D01*
X74230500Y-59333157D01*
X74230500Y-59000940D01*
X74250185Y-58933901D01*
X74302989Y-58888146D01*
X74372147Y-58878202D01*
X74435703Y-58907227D01*
X74442167Y-58913245D01*
X74524693Y-58995771D01*
X74570712Y-59041790D01*
X74701814Y-59129390D01*
X74701818Y-59129392D01*
X74701821Y-59129394D01*
X74847503Y-59189738D01*
X75002153Y-59220499D01*
X75002157Y-59220500D01*
X75002158Y-59220500D01*
X76937844Y-59220500D01*
X76937845Y-59220499D01*
X77092497Y-59189737D01*
X77205166Y-59143067D01*
X77238172Y-59129397D01*
X77238172Y-59129396D01*
X77238179Y-59129394D01*
X77369289Y-59041789D01*
X78262235Y-58148841D01*
X78323556Y-58115358D01*
X78369311Y-58114051D01*
X78403713Y-58119500D01*
X78403714Y-58119500D01*
X78616286Y-58119500D01*
X78616287Y-58119500D01*
X78826243Y-58086246D01*
X78905973Y-58060339D01*
X78975810Y-58058345D01*
X79035643Y-58094425D01*
X79066472Y-58157125D01*
X79058508Y-58226540D01*
X79031969Y-58265952D01*
X74634741Y-62663181D01*
X74573418Y-62696666D01*
X74547060Y-62699500D01*
X73581155Y-62699500D01*
X73426510Y-62730261D01*
X73426498Y-62730264D01*
X73280827Y-62790602D01*
X73280814Y-62790609D01*
X73149711Y-62878210D01*
X73149707Y-62878213D01*
X73038213Y-62989707D01*
X73038210Y-62989711D01*
X72950609Y-63120814D01*
X72950602Y-63120827D01*
X72890264Y-63266498D01*
X72890261Y-63266510D01*
X72859500Y-63421153D01*
X72859500Y-63578846D01*
X72890261Y-63733489D01*
X72890264Y-63733501D01*
X72950602Y-63879172D01*
X72950609Y-63879185D01*
X73038210Y-64010288D01*
X73038213Y-64010292D01*
X73149707Y-64121786D01*
X73149711Y-64121789D01*
X73280814Y-64209390D01*
X73280827Y-64209397D01*
X73407138Y-64261716D01*
X73426503Y-64269737D01*
X73581153Y-64300499D01*
X73581156Y-64300500D01*
X73581158Y-64300500D01*
X75008844Y-64300500D01*
X75008845Y-64300499D01*
X75163497Y-64269737D01*
X75309179Y-64209394D01*
X75440289Y-64121789D01*
X80521819Y-59040259D01*
X80583142Y-59006774D01*
X80652834Y-59011758D01*
X80708767Y-59053630D01*
X80733184Y-59119094D01*
X80733500Y-59127940D01*
X80733500Y-60069059D01*
X80713815Y-60136098D01*
X80697181Y-60156740D01*
X77356213Y-63497707D01*
X77356210Y-63497711D01*
X77268609Y-63628814D01*
X77268602Y-63628827D01*
X77208264Y-63774498D01*
X77208261Y-63774510D01*
X77177500Y-63929153D01*
X77177500Y-64086846D01*
X77208261Y-64241489D01*
X77208264Y-64241501D01*
X77268602Y-64387172D01*
X77268609Y-64387185D01*
X77356210Y-64518288D01*
X77356213Y-64518292D01*
X77467707Y-64629786D01*
X77467711Y-64629789D01*
X77598814Y-64717390D01*
X77598827Y-64717397D01*
X77737965Y-64775029D01*
X77744503Y-64777737D01*
X77899153Y-64808499D01*
X77899156Y-64808500D01*
X77899158Y-64808500D01*
X78056844Y-64808500D01*
X78056845Y-64808499D01*
X78211497Y-64777737D01*
X78357179Y-64717394D01*
X78488289Y-64629789D01*
X79145153Y-63972925D01*
X79809879Y-63308200D01*
X81513399Y-61604679D01*
X82155788Y-60962290D01*
X82162488Y-60952263D01*
X82243394Y-60831179D01*
X82303737Y-60685497D01*
X82334500Y-60530842D01*
X82334500Y-55716940D01*
X82354185Y-55649901D01*
X82370819Y-55629259D01*
X82625788Y-55374290D01*
X82625790Y-55374287D01*
X82634276Y-55361588D01*
X82713394Y-55243179D01*
X82768616Y-55109861D01*
X82773737Y-55097498D01*
X82804500Y-54942843D01*
X82804500Y-54785158D01*
X82804500Y-54785155D01*
X82804499Y-54785153D01*
X82773739Y-54630511D01*
X82773737Y-54630504D01*
X82773735Y-54630498D01*
X82771294Y-54624606D01*
X82713394Y-54484821D01*
X82713392Y-54484819D01*
X82713392Y-54484817D01*
X82625789Y-54353711D01*
X82625786Y-54353707D01*
X82514291Y-54242212D01*
X82514288Y-54242210D01*
X82383185Y-54154609D01*
X82383172Y-54154602D01*
X82237501Y-54094264D01*
X82237489Y-54094261D01*
X82082845Y-54063500D01*
X82082842Y-54063500D01*
X81925157Y-54063500D01*
X81925154Y-54063500D01*
X81770509Y-54094261D01*
X81770501Y-54094263D01*
X81733145Y-54109737D01*
X81733144Y-54109737D01*
X81624827Y-54154602D01*
X81624814Y-54154609D01*
X81493712Y-54242209D01*
X81493710Y-54242212D01*
X81106152Y-54629769D01*
X81044829Y-54663254D01*
X80975137Y-54658270D01*
X80926145Y-54624864D01*
X80920258Y-54618298D01*
X80885789Y-54566711D01*
X80774289Y-54455211D01*
X80672785Y-54353707D01*
X80561291Y-54242212D01*
X80561288Y-54242210D01*
X80430185Y-54154609D01*
X80430172Y-54154602D01*
X80284501Y-54094264D01*
X80284489Y-54094261D01*
X80129845Y-54063500D01*
X80129842Y-54063500D01*
X79169158Y-54063500D01*
X79169155Y-54063500D01*
X79014510Y-54094261D01*
X79014498Y-54094264D01*
X78868827Y-54154602D01*
X78868814Y-54154609D01*
X78737711Y-54242210D01*
X78737709Y-54242212D01*
X78626213Y-54353707D01*
X78626210Y-54353711D01*
X78538609Y-54484814D01*
X78538602Y-54484827D01*
X78478264Y-54630498D01*
X78478261Y-54630510D01*
X78447500Y-54785153D01*
X78447500Y-54942846D01*
X78478261Y-55097489D01*
X78478264Y-55097501D01*
X78540208Y-55247048D01*
X78547677Y-55316517D01*
X78516402Y-55378996D01*
X78456312Y-55414648D01*
X78425647Y-55418500D01*
X78403713Y-55418500D01*
X78355042Y-55426208D01*
X78193760Y-55451753D01*
X77991585Y-55517444D01*
X77802179Y-55613951D01*
X77630213Y-55738890D01*
X77479890Y-55889213D01*
X77354949Y-56061182D01*
X77350484Y-56069946D01*
X77302509Y-56120742D01*
X77234688Y-56137536D01*
X77168553Y-56114998D01*
X77129516Y-56069946D01*
X77125050Y-56061182D01*
X77000109Y-55889213D01*
X76849786Y-55738890D01*
X76677820Y-55613951D01*
X76488414Y-55517444D01*
X76488413Y-55517443D01*
X76488412Y-55517443D01*
X76286243Y-55451754D01*
X76286241Y-55451753D01*
X76286240Y-55451753D01*
X76124957Y-55426208D01*
X76076287Y-55418500D01*
X75863713Y-55418500D01*
X75815042Y-55426208D01*
X75653760Y-55451753D01*
X75451585Y-55517444D01*
X75262179Y-55613951D01*
X75090213Y-55738890D01*
X74939890Y-55889213D01*
X74814949Y-56061182D01*
X74810484Y-56069946D01*
X74762509Y-56120742D01*
X74694688Y-56137536D01*
X74628553Y-56114998D01*
X74589516Y-56069946D01*
X74585050Y-56061182D01*
X74460109Y-55889213D01*
X74309786Y-55738890D01*
X74137820Y-55613951D01*
X73948414Y-55517444D01*
X73948413Y-55517443D01*
X73948412Y-55517443D01*
X73746243Y-55451754D01*
X73746241Y-55451753D01*
X73746240Y-55451753D01*
X73584957Y-55426208D01*
X73536287Y-55418500D01*
X73323713Y-55418500D01*
X73275042Y-55426208D01*
X73113760Y-55451753D01*
X72911585Y-55517444D01*
X72722179Y-55613951D01*
X72550215Y-55738889D01*
X72436673Y-55852431D01*
X72375350Y-55885915D01*
X72305658Y-55880931D01*
X72249725Y-55839059D01*
X72232810Y-55808082D01*
X72183797Y-55676671D01*
X72183793Y-55676664D01*
X72097547Y-55561455D01*
X72097544Y-55561452D01*
X71982335Y-55475206D01*
X71982328Y-55475202D01*
X71847482Y-55424908D01*
X71847483Y-55424908D01*
X71787883Y-55418501D01*
X71787881Y-55418500D01*
X71787873Y-55418500D01*
X71787864Y-55418500D01*
X69992129Y-55418500D01*
X69992123Y-55418501D01*
X69932516Y-55424908D01*
X69797671Y-55475202D01*
X69797664Y-55475206D01*
X69682455Y-55561452D01*
X69682452Y-55561455D01*
X69596206Y-55676664D01*
X69596202Y-55676671D01*
X69545908Y-55811517D01*
X69539501Y-55871116D01*
X69539500Y-55871135D01*
X69539500Y-57666870D01*
X69539501Y-57666876D01*
X69545908Y-57726483D01*
X69596202Y-57861328D01*
X69596206Y-57861335D01*
X69682452Y-57976544D01*
X69682455Y-57976547D01*
X69797664Y-58062793D01*
X69797671Y-58062797D01*
X69932517Y-58113091D01*
X69932516Y-58113091D01*
X69939444Y-58113835D01*
X69992127Y-58119500D01*
X71787872Y-58119499D01*
X71847483Y-58113091D01*
X71982331Y-58062796D01*
X72097546Y-57976546D01*
X72183796Y-57861331D01*
X72232810Y-57729916D01*
X72252576Y-57703512D01*
X72271492Y-57676452D01*
X72273428Y-57675657D01*
X72274681Y-57673984D01*
X72305585Y-57662456D01*
X72336128Y-57649919D01*
X72338185Y-57650296D01*
X72340145Y-57649566D01*
X72372400Y-57656582D01*
X72404848Y-57662543D01*
X72407016Y-57664112D01*
X72408418Y-57664417D01*
X72433775Y-57682763D01*
X72435234Y-57684130D01*
X72550208Y-57799104D01*
X72584645Y-57824123D01*
X72590283Y-57829406D01*
X72604248Y-57853114D01*
X72621050Y-57874902D01*
X72622907Y-57884790D01*
X72625745Y-57889608D01*
X72625413Y-57898134D01*
X72629500Y-57919893D01*
X72629500Y-59029060D01*
X72609815Y-59096099D01*
X72593181Y-59116741D01*
X70101711Y-61608211D01*
X70045960Y-61663962D01*
X69990209Y-61719712D01*
X69902609Y-61850814D01*
X69902602Y-61850827D01*
X69842264Y-61996498D01*
X69842261Y-61996510D01*
X69811500Y-62151153D01*
X69811500Y-65260242D01*
X69791815Y-65327281D01*
X69775181Y-65347923D01*
X69708894Y-65414209D01*
X69708890Y-65414213D01*
X69583951Y-65586179D01*
X69487444Y-65775585D01*
X69421753Y-65977760D01*
X69388500Y-66187713D01*
X69388500Y-66400286D01*
X69415664Y-66571797D01*
X69421754Y-66610243D01*
X69466454Y-66747816D01*
X69487444Y-66812414D01*
X69583951Y-67001820D01*
X69708890Y-67173786D01*
X69859213Y-67324109D01*
X70031179Y-67449048D01*
X70031181Y-67449049D01*
X70031184Y-67449051D01*
X70220588Y-67545557D01*
X70422757Y-67611246D01*
X70632713Y-67644500D01*
X70632714Y-67644500D01*
X70845286Y-67644500D01*
X70845287Y-67644500D01*
X71055243Y-67611246D01*
X71257412Y-67545557D01*
X71446816Y-67449051D01*
X71618792Y-67324104D01*
X71732329Y-67210566D01*
X71793648Y-67177084D01*
X71863340Y-67182068D01*
X71919274Y-67223939D01*
X71936189Y-67254917D01*
X71985202Y-67386328D01*
X71985206Y-67386335D01*
X72071452Y-67501544D01*
X72071455Y-67501547D01*
X72186664Y-67587793D01*
X72186671Y-67587797D01*
X72321517Y-67638091D01*
X72321516Y-67638091D01*
X72328444Y-67638835D01*
X72381127Y-67644500D01*
X73446059Y-67644499D01*
X73513098Y-67664183D01*
X73533740Y-67680818D01*
X74943211Y-69090289D01*
X75054711Y-69201789D01*
X75054712Y-69201790D01*
X75185814Y-69289390D01*
X75185827Y-69289397D01*
X75331498Y-69349735D01*
X75331503Y-69349737D01*
X75331507Y-69349737D01*
X75331508Y-69349738D01*
X75486154Y-69380500D01*
X75486157Y-69380500D01*
X75486158Y-69380500D01*
X83919020Y-69380500D01*
X83986059Y-69400185D01*
X84019338Y-69431614D01*
X84044897Y-69466793D01*
X84195213Y-69617109D01*
X84367182Y-69742050D01*
X84375946Y-69746516D01*
X84426742Y-69794491D01*
X84443536Y-69862312D01*
X84420998Y-69928447D01*
X84375946Y-69967484D01*
X84367182Y-69971949D01*
X84195213Y-70096890D01*
X84044890Y-70247213D01*
X83919951Y-70419179D01*
X83823444Y-70608585D01*
X83757753Y-70810760D01*
X83724500Y-71020713D01*
X83724500Y-71233286D01*
X83756644Y-71436239D01*
X83757754Y-71443243D01*
X83821169Y-71638414D01*
X83823444Y-71645414D01*
X83919951Y-71834820D01*
X84044890Y-72006786D01*
X84195213Y-72157109D01*
X84367182Y-72282050D01*
X84375946Y-72286516D01*
X84426742Y-72334491D01*
X84443536Y-72402312D01*
X84420998Y-72468447D01*
X84375946Y-72507484D01*
X84367182Y-72511949D01*
X84195213Y-72636890D01*
X84044890Y-72787213D01*
X83919951Y-72959179D01*
X83823444Y-73148585D01*
X83757753Y-73350760D01*
X83724500Y-73560713D01*
X83724500Y-73773286D01*
X83756644Y-73976239D01*
X83757754Y-73983243D01*
X83821169Y-74178414D01*
X83823444Y-74185414D01*
X83919951Y-74374820D01*
X84044890Y-74546786D01*
X84195213Y-74697109D01*
X84367179Y-74822048D01*
X84367181Y-74822049D01*
X84367184Y-74822051D01*
X84376493Y-74826794D01*
X84427290Y-74874766D01*
X84444087Y-74942587D01*
X84421552Y-75008722D01*
X84376505Y-75047760D01*
X84367446Y-75052376D01*
X84367440Y-75052380D01*
X84313282Y-75091727D01*
X84313282Y-75091728D01*
X84945591Y-75724037D01*
X84882007Y-75741075D01*
X84767993Y-75806901D01*
X84674901Y-75899993D01*
X84609075Y-76014007D01*
X84592037Y-76077591D01*
X83959728Y-75445282D01*
X83959727Y-75445282D01*
X83920380Y-75499439D01*
X83823904Y-75688782D01*
X83758242Y-75890869D01*
X83758242Y-75890872D01*
X83725000Y-76100753D01*
X83725000Y-76313246D01*
X83758242Y-76523127D01*
X83758242Y-76523130D01*
X83823904Y-76725217D01*
X83920375Y-76914550D01*
X83959728Y-76968716D01*
X84592037Y-76336408D01*
X84609075Y-76399993D01*
X84674901Y-76514007D01*
X84767993Y-76607099D01*
X84882007Y-76672925D01*
X84945590Y-76689962D01*
X84275370Y-77360181D01*
X84214047Y-77393666D01*
X84187698Y-77396500D01*
X84177134Y-77396500D01*
X84177123Y-77396501D01*
X84117516Y-77402908D01*
X83982671Y-77453202D01*
X83982664Y-77453206D01*
X83867455Y-77539452D01*
X83867452Y-77539455D01*
X83781206Y-77654664D01*
X83781202Y-77654671D01*
X83730910Y-77789513D01*
X83730909Y-77789517D01*
X83725937Y-77835757D01*
X83699201Y-77900306D01*
X83641809Y-77940154D01*
X83602649Y-77946500D01*
X79129940Y-77946500D01*
X79062901Y-77926815D01*
X79042259Y-77910181D01*
X78866027Y-77733949D01*
X78832542Y-77672626D01*
X78837526Y-77602934D01*
X78879398Y-77547001D01*
X78944862Y-77522584D01*
X78973105Y-77523794D01*
X79141713Y-77550500D01*
X79141714Y-77550500D01*
X79354286Y-77550500D01*
X79354287Y-77550500D01*
X79564243Y-77517246D01*
X79766412Y-77451557D01*
X79955816Y-77355051D01*
X80042478Y-77292088D01*
X80127784Y-77230110D01*
X80127784Y-77230109D01*
X80127792Y-77230104D01*
X80241717Y-77116178D01*
X80303036Y-77082696D01*
X80372728Y-77087680D01*
X80428662Y-77129551D01*
X80445577Y-77160528D01*
X80494646Y-77292088D01*
X80494649Y-77292093D01*
X80580809Y-77407187D01*
X80580812Y-77407190D01*
X80695906Y-77493350D01*
X80695913Y-77493354D01*
X80830620Y-77543596D01*
X80830627Y-77543598D01*
X80890155Y-77549999D01*
X80890172Y-77550000D01*
X81538000Y-77550000D01*
X81538000Y-76633012D01*
X81595007Y-76665925D01*
X81722174Y-76700000D01*
X81853826Y-76700000D01*
X81980993Y-76665925D01*
X82038000Y-76633012D01*
X82038000Y-77550000D01*
X82685828Y-77550000D01*
X82685844Y-77549999D01*
X82745372Y-77543598D01*
X82745379Y-77543596D01*
X82880086Y-77493354D01*
X82880093Y-77493350D01*
X82995187Y-77407190D01*
X82995190Y-77407187D01*
X83081350Y-77292093D01*
X83081354Y-77292086D01*
X83131596Y-77157379D01*
X83131598Y-77157372D01*
X83137999Y-77097844D01*
X83138000Y-77097827D01*
X83138000Y-76450000D01*
X82221012Y-76450000D01*
X82253925Y-76392993D01*
X82288000Y-76265826D01*
X82288000Y-76134174D01*
X82253925Y-76007007D01*
X82221012Y-75950000D01*
X83138000Y-75950000D01*
X83138000Y-75302172D01*
X83137999Y-75302155D01*
X83131598Y-75242627D01*
X83131596Y-75242620D01*
X83081354Y-75107913D01*
X83081350Y-75107906D01*
X82995190Y-74992812D01*
X82995187Y-74992809D01*
X82880093Y-74906649D01*
X82880086Y-74906645D01*
X82745379Y-74856403D01*
X82745372Y-74856401D01*
X82685844Y-74850000D01*
X82038000Y-74850000D01*
X82038000Y-75766988D01*
X81980993Y-75734075D01*
X81853826Y-75700000D01*
X81722174Y-75700000D01*
X81595007Y-75734075D01*
X81538000Y-75766988D01*
X81538000Y-74850000D01*
X80890155Y-74850000D01*
X80830627Y-74856401D01*
X80830620Y-74856403D01*
X80695913Y-74906645D01*
X80695906Y-74906649D01*
X80580812Y-74992809D01*
X80580809Y-74992812D01*
X80494649Y-75107906D01*
X80494646Y-75107912D01*
X80445577Y-75239471D01*
X80403705Y-75295404D01*
X80338241Y-75319821D01*
X80269968Y-75304969D01*
X80241714Y-75283818D01*
X80127786Y-75169890D01*
X79955820Y-75044951D01*
X79766414Y-74948444D01*
X79766413Y-74948443D01*
X79766412Y-74948443D01*
X79564243Y-74882754D01*
X79564241Y-74882753D01*
X79564240Y-74882753D01*
X79402957Y-74857208D01*
X79354287Y-74849500D01*
X79141713Y-74849500D01*
X79093042Y-74857208D01*
X78931760Y-74882753D01*
X78729585Y-74948444D01*
X78540179Y-75044951D01*
X78368213Y-75169890D01*
X78217890Y-75320213D01*
X78092949Y-75492182D01*
X78088484Y-75500946D01*
X78040509Y-75551742D01*
X77972688Y-75568536D01*
X77906553Y-75545998D01*
X77867516Y-75500946D01*
X77863050Y-75492182D01*
X77738109Y-75320213D01*
X77587786Y-75169890D01*
X77415820Y-75044951D01*
X77226414Y-74948444D01*
X77226413Y-74948443D01*
X77226412Y-74948443D01*
X77024243Y-74882754D01*
X77024241Y-74882753D01*
X77024240Y-74882753D01*
X76862957Y-74857208D01*
X76814287Y-74849500D01*
X76601713Y-74849500D01*
X76553042Y-74857208D01*
X76391760Y-74882753D01*
X76189585Y-74948444D01*
X76000179Y-75044951D01*
X75828213Y-75169890D01*
X75677890Y-75320213D01*
X75552951Y-75492179D01*
X75456444Y-75681585D01*
X75390753Y-75883760D01*
X75357500Y-76093713D01*
X75357500Y-76306286D01*
X75390735Y-76516127D01*
X75390754Y-76516243D01*
X75441663Y-76672925D01*
X75456444Y-76718414D01*
X75552951Y-76907820D01*
X75677890Y-77079786D01*
X75828213Y-77230109D01*
X76000179Y-77355048D01*
X76000181Y-77355049D01*
X76000184Y-77355051D01*
X76189588Y-77451557D01*
X76189590Y-77451557D01*
X76189593Y-77451559D01*
X76189591Y-77451559D01*
X76318214Y-77493350D01*
X76353682Y-77504874D01*
X76403046Y-77535124D01*
X78125211Y-79257289D01*
X78236711Y-79368789D01*
X78367821Y-79456394D01*
X78470833Y-79499062D01*
X78513502Y-79516737D01*
X78668152Y-79547499D01*
X78668155Y-79547500D01*
X78668157Y-79547500D01*
X78668158Y-79547500D01*
X83602649Y-79547500D01*
X83669688Y-79567185D01*
X83715443Y-79619989D01*
X83721531Y-79636242D01*
X83724734Y-79647042D01*
X83730909Y-79704483D01*
X83781204Y-79839331D01*
X83782130Y-79840569D01*
X83785148Y-79850742D01*
X83785231Y-79881594D01*
X83787432Y-79912359D01*
X83785326Y-79916215D01*
X83785338Y-79920611D01*
X83768732Y-79946605D01*
X83753947Y-79973682D01*
X83750088Y-79975788D01*
X83747723Y-79979492D01*
X83719700Y-79992381D01*
X83692624Y-80007166D01*
X83686012Y-80007876D01*
X83684247Y-80008689D01*
X83681742Y-80008335D01*
X83666266Y-80010000D01*
X68715773Y-80010000D01*
X68648734Y-79990315D01*
X68602979Y-79937511D01*
X68593035Y-79868353D01*
X68602084Y-79841158D01*
X68600697Y-79840641D01*
X68651480Y-79704483D01*
X68654091Y-79697483D01*
X68660500Y-79637873D01*
X68660499Y-77842128D01*
X68655299Y-77793757D01*
X68654091Y-77782516D01*
X68603797Y-77647671D01*
X68603793Y-77647664D01*
X68517547Y-77532455D01*
X68517544Y-77532452D01*
X68402335Y-77446206D01*
X68402328Y-77446202D01*
X68267482Y-77395908D01*
X68267483Y-77395908D01*
X68207883Y-77389501D01*
X68207881Y-77389500D01*
X68207873Y-77389500D01*
X68207865Y-77389500D01*
X68197309Y-77389500D01*
X68130270Y-77369815D01*
X68109628Y-77353181D01*
X67439408Y-76682962D01*
X67502993Y-76665925D01*
X67617007Y-76600099D01*
X67710099Y-76507007D01*
X67775925Y-76392993D01*
X67792962Y-76329408D01*
X68425270Y-76961717D01*
X68425270Y-76961716D01*
X68464622Y-76907554D01*
X68561095Y-76718217D01*
X68626757Y-76516130D01*
X68626757Y-76516127D01*
X68660000Y-76306246D01*
X68660000Y-76093753D01*
X68626757Y-75883872D01*
X68626757Y-75883869D01*
X68561095Y-75681782D01*
X68464624Y-75492449D01*
X68425270Y-75438282D01*
X68425269Y-75438282D01*
X67792962Y-76070590D01*
X67775925Y-76007007D01*
X67710099Y-75892993D01*
X67617007Y-75799901D01*
X67502993Y-75734075D01*
X67439409Y-75717037D01*
X68071716Y-75084728D01*
X68017547Y-75045373D01*
X68017547Y-75045372D01*
X68008500Y-75040763D01*
X67957706Y-74992788D01*
X67940912Y-74924966D01*
X67963451Y-74858832D01*
X68008508Y-74819793D01*
X68017816Y-74815051D01*
X68097007Y-74757515D01*
X68189786Y-74690109D01*
X68189788Y-74690106D01*
X68189792Y-74690104D01*
X68340104Y-74539792D01*
X68340106Y-74539788D01*
X68340109Y-74539786D01*
X68465048Y-74367820D01*
X68465047Y-74367820D01*
X68465051Y-74367816D01*
X68561557Y-74178412D01*
X68627246Y-73976243D01*
X68660500Y-73766287D01*
X68660500Y-73553713D01*
X68627246Y-73343757D01*
X68561557Y-73141588D01*
X68465051Y-72952184D01*
X68465049Y-72952181D01*
X68465048Y-72952179D01*
X68340109Y-72780213D01*
X68189786Y-72629890D01*
X68017820Y-72504951D01*
X68017115Y-72504591D01*
X68009054Y-72500485D01*
X67958259Y-72452512D01*
X67941463Y-72384692D01*
X67963999Y-72318556D01*
X68009054Y-72279515D01*
X68017816Y-72275051D01*
X68039789Y-72259086D01*
X68189786Y-72150109D01*
X68189788Y-72150106D01*
X68189792Y-72150104D01*
X68340104Y-71999792D01*
X68340106Y-71999788D01*
X68340109Y-71999786D01*
X68465048Y-71827820D01*
X68465047Y-71827820D01*
X68465051Y-71827816D01*
X68561557Y-71638412D01*
X68627246Y-71436243D01*
X68660500Y-71226287D01*
X68660500Y-71013713D01*
X68627246Y-70803757D01*
X68561557Y-70601588D01*
X68465051Y-70412184D01*
X68465049Y-70412181D01*
X68465048Y-70412179D01*
X68340109Y-70240213D01*
X68189786Y-70089890D01*
X68017820Y-69964951D01*
X68017115Y-69964591D01*
X68009054Y-69960485D01*
X67958259Y-69912512D01*
X67941463Y-69844692D01*
X67963999Y-69778556D01*
X68009054Y-69739515D01*
X68017816Y-69735051D01*
X68039789Y-69719086D01*
X68189786Y-69610109D01*
X68189788Y-69610106D01*
X68189792Y-69610104D01*
X68340104Y-69459792D01*
X68340106Y-69459788D01*
X68340109Y-69459786D01*
X68463902Y-69289397D01*
X68465051Y-69287816D01*
X68561557Y-69098412D01*
X68627246Y-68896243D01*
X68660500Y-68686287D01*
X68660500Y-68473713D01*
X68627246Y-68263757D01*
X68561557Y-68061588D01*
X68465051Y-67872184D01*
X68465049Y-67872181D01*
X68465048Y-67872179D01*
X68340109Y-67700213D01*
X68189786Y-67549890D01*
X68017820Y-67424951D01*
X68017115Y-67424591D01*
X68009054Y-67420485D01*
X67958259Y-67372512D01*
X67941463Y-67304692D01*
X67963999Y-67238556D01*
X68009054Y-67199515D01*
X68017816Y-67195051D01*
X68047085Y-67173786D01*
X68189786Y-67070109D01*
X68189788Y-67070106D01*
X68189792Y-67070104D01*
X68340104Y-66919792D01*
X68340106Y-66919788D01*
X68340109Y-66919786D01*
X68465048Y-66747820D01*
X68465047Y-66747820D01*
X68465051Y-66747816D01*
X68561557Y-66558412D01*
X68627246Y-66356243D01*
X68660500Y-66146287D01*
X68660500Y-65933713D01*
X68627246Y-65723757D01*
X68561557Y-65521588D01*
X68465051Y-65332184D01*
X68465049Y-65332181D01*
X68465048Y-65332179D01*
X68340109Y-65160213D01*
X68189786Y-65009890D01*
X68017817Y-64884949D01*
X68008504Y-64880204D01*
X67957707Y-64832230D01*
X67940912Y-64764409D01*
X67963449Y-64698274D01*
X68008507Y-64659232D01*
X68017555Y-64654622D01*
X68071716Y-64615270D01*
X68071717Y-64615270D01*
X67439408Y-63982962D01*
X67502993Y-63965925D01*
X67617007Y-63900099D01*
X67710099Y-63807007D01*
X67775925Y-63692993D01*
X67792962Y-63629408D01*
X68425270Y-64261717D01*
X68425270Y-64261716D01*
X68464622Y-64207554D01*
X68561095Y-64018217D01*
X68626757Y-63816130D01*
X68626757Y-63816127D01*
X68660000Y-63606246D01*
X68660000Y-63393753D01*
X68626757Y-63183872D01*
X68626757Y-63183869D01*
X68561095Y-62981782D01*
X68464624Y-62792449D01*
X68425270Y-62738282D01*
X68425269Y-62738282D01*
X67792962Y-63370590D01*
X67775925Y-63307007D01*
X67710099Y-63192993D01*
X67617007Y-63099901D01*
X67502993Y-63034075D01*
X67439409Y-63017037D01*
X68071716Y-62384728D01*
X68017547Y-62345373D01*
X68017547Y-62345372D01*
X68008500Y-62340763D01*
X67957706Y-62292788D01*
X67940912Y-62224966D01*
X67963451Y-62158832D01*
X68008508Y-62119793D01*
X68017816Y-62115051D01*
X68123731Y-62038100D01*
X68189786Y-61990109D01*
X68189788Y-61990106D01*
X68189792Y-61990104D01*
X68340104Y-61839792D01*
X68340106Y-61839788D01*
X68340109Y-61839786D01*
X68465048Y-61667820D01*
X68465047Y-61667820D01*
X68465051Y-61667816D01*
X68561557Y-61478412D01*
X68627246Y-61276243D01*
X68660500Y-61066287D01*
X68660500Y-60853713D01*
X68627246Y-60643757D01*
X68561557Y-60441588D01*
X68465051Y-60252184D01*
X68465049Y-60252181D01*
X68465048Y-60252179D01*
X68340109Y-60080213D01*
X68189786Y-59929890D01*
X68017820Y-59804951D01*
X68017115Y-59804591D01*
X68009054Y-59800485D01*
X67958259Y-59752512D01*
X67941463Y-59684692D01*
X67963999Y-59618556D01*
X68009054Y-59579515D01*
X68017816Y-59575051D01*
X68039789Y-59559086D01*
X68189786Y-59450109D01*
X68189788Y-59450106D01*
X68189792Y-59450104D01*
X68340104Y-59299792D01*
X68340106Y-59299788D01*
X68340109Y-59299786D01*
X68463904Y-59129395D01*
X68465051Y-59127816D01*
X68561557Y-58938412D01*
X68627246Y-58736243D01*
X68660500Y-58526287D01*
X68660500Y-58313713D01*
X68627246Y-58103757D01*
X68561557Y-57901588D01*
X68465051Y-57712184D01*
X68465049Y-57712181D01*
X68465048Y-57712179D01*
X68340109Y-57540213D01*
X68189786Y-57389890D01*
X68017820Y-57264951D01*
X68017115Y-57264591D01*
X68009054Y-57260485D01*
X67958259Y-57212512D01*
X67941463Y-57144692D01*
X67963999Y-57078556D01*
X68009054Y-57039515D01*
X68017816Y-57035051D01*
X68039789Y-57019086D01*
X68189786Y-56910109D01*
X68189788Y-56910106D01*
X68189792Y-56910104D01*
X68340104Y-56759792D01*
X68340106Y-56759788D01*
X68340109Y-56759786D01*
X68465048Y-56587820D01*
X68465047Y-56587820D01*
X68465051Y-56587816D01*
X68561557Y-56398412D01*
X68627246Y-56196243D01*
X68660500Y-55986287D01*
X68660500Y-55773713D01*
X68627246Y-55563757D01*
X68561557Y-55361588D01*
X68465051Y-55172184D01*
X68465049Y-55172181D01*
X68465048Y-55172179D01*
X68340109Y-55000213D01*
X68189786Y-54849890D01*
X68017820Y-54724951D01*
X68017115Y-54724591D01*
X68009054Y-54720485D01*
X67958259Y-54672512D01*
X67941463Y-54604692D01*
X67963999Y-54538556D01*
X68009054Y-54499515D01*
X68017816Y-54495051D01*
X68039789Y-54479086D01*
X68189786Y-54370109D01*
X68189788Y-54370106D01*
X68189792Y-54370104D01*
X68340104Y-54219792D01*
X68340106Y-54219788D01*
X68340109Y-54219786D01*
X68463902Y-54049397D01*
X68465051Y-54047816D01*
X68561557Y-53858412D01*
X68627246Y-53656243D01*
X68660500Y-53446287D01*
X68660500Y-53233713D01*
X68627246Y-53023757D01*
X68561557Y-52821588D01*
X68465051Y-52632184D01*
X68465049Y-52632181D01*
X68465048Y-52632179D01*
X68340109Y-52460213D01*
X68189786Y-52309890D01*
X68017817Y-52184949D01*
X68008504Y-52180204D01*
X67957707Y-52132230D01*
X67940912Y-52064409D01*
X67963449Y-51998274D01*
X68008507Y-51959232D01*
X68017555Y-51954622D01*
X68071716Y-51915270D01*
X68071717Y-51915270D01*
X67439408Y-51282962D01*
X67502993Y-51265925D01*
X67617007Y-51200099D01*
X67710099Y-51107007D01*
X67775925Y-50992993D01*
X67792962Y-50929409D01*
X68425270Y-51561717D01*
X68425270Y-51561716D01*
X68464622Y-51507554D01*
X68561095Y-51318217D01*
X68626757Y-51116130D01*
X68626757Y-51116127D01*
X68660000Y-50906246D01*
X68660000Y-50693753D01*
X68626757Y-50483872D01*
X68626757Y-50483869D01*
X68561095Y-50281783D01*
X68548364Y-50256797D01*
X68535467Y-50188128D01*
X68561742Y-50123387D01*
X68618848Y-50083129D01*
X68658848Y-50076500D01*
X69657060Y-50076500D01*
X69724099Y-50096185D01*
X69744741Y-50112819D01*
X71553181Y-51921259D01*
X71586666Y-51982582D01*
X71589500Y-52008940D01*
X71589500Y-52703059D01*
X71569815Y-52770098D01*
X71553181Y-52790740D01*
X71514213Y-52829707D01*
X71514210Y-52829711D01*
X71426609Y-52960814D01*
X71426602Y-52960827D01*
X71366264Y-53106498D01*
X71366261Y-53106510D01*
X71335500Y-53261153D01*
X71335500Y-53418846D01*
X71366261Y-53573489D01*
X71366263Y-53573497D01*
X71426602Y-53719172D01*
X71426609Y-53719185D01*
X71514210Y-53850288D01*
X71514213Y-53850292D01*
X71625707Y-53961786D01*
X71625711Y-53961789D01*
X71756814Y-54049390D01*
X71756827Y-54049397D01*
X71902498Y-54109735D01*
X71902503Y-54109737D01*
X72057153Y-54140499D01*
X72057156Y-54140500D01*
X72057158Y-54140500D01*
X72214844Y-54140500D01*
X72214845Y-54140499D01*
X72369497Y-54109737D01*
X72482166Y-54063067D01*
X72515172Y-54049397D01*
X72515172Y-54049396D01*
X72515179Y-54049394D01*
X72646289Y-53961789D01*
X73011789Y-53596289D01*
X73027018Y-53573497D01*
X73099394Y-53465179D01*
X73159737Y-53319497D01*
X73168403Y-53275931D01*
X73171343Y-53261153D01*
X73181190Y-53211649D01*
X73190500Y-53164845D01*
X73190500Y-51547155D01*
X73190499Y-51547153D01*
X73159738Y-51392510D01*
X73159737Y-51392503D01*
X73159735Y-51392498D01*
X73099397Y-51246827D01*
X73099390Y-51246814D01*
X73011790Y-51115712D01*
X73003085Y-51107007D01*
X72900289Y-51004211D01*
X71129759Y-49233681D01*
X71096274Y-49172358D01*
X71101258Y-49102666D01*
X71143130Y-49046733D01*
X71208594Y-49022316D01*
X71217440Y-49022000D01*
X86744000Y-49022000D01*
X86811039Y-49041685D01*
G37*
%TD.AperFunction*%
%TA.AperFunction,Conductor*%
G36*
X66844075Y-50992993D02*
G01*
X66909901Y-51107007D01*
X67002993Y-51200099D01*
X67117007Y-51265925D01*
X67180590Y-51282962D01*
X66548282Y-51915269D01*
X66548282Y-51915270D01*
X66602452Y-51954626D01*
X66602451Y-51954626D01*
X66611495Y-51959234D01*
X66662292Y-52007208D01*
X66679087Y-52075029D01*
X66656550Y-52141164D01*
X66611499Y-52180202D01*
X66602182Y-52184949D01*
X66430213Y-52309890D01*
X66279890Y-52460213D01*
X66154951Y-52632180D01*
X66058985Y-52820523D01*
X66011010Y-52871319D01*
X65943189Y-52888114D01*
X65877054Y-52865576D01*
X65833603Y-52810861D01*
X65824500Y-52764228D01*
X65824500Y-51374670D01*
X65844185Y-51307631D01*
X65896989Y-51261876D01*
X65966147Y-51251932D01*
X66029703Y-51280957D01*
X66058985Y-51318375D01*
X66155375Y-51507550D01*
X66194728Y-51561716D01*
X66827036Y-50929407D01*
X66844075Y-50992993D01*
G37*
%TD.AperFunction*%
%TD*%
M02*
