%TF.GenerationSoftware,KiCad,Pcbnew,9.0.7*%
%TF.CreationDate,2026-03-31T12:49:37+02:00*%
%TF.ProjectId,VolvocineWithCurrentSensorV4,566f6c76-6f63-4696-9e65-576974684375,rev?*%
%TF.SameCoordinates,Original*%
%TF.FileFunction,Legend,Top*%
%TF.FilePolarity,Positive*%
%FSLAX46Y46*%
G04 Gerber Fmt 4.6, Leading zero omitted, Abs format (unit mm)*
G04 Created by KiCad (PCBNEW 9.0.7) date 2026-03-31 12:49:37*
%MOMM*%
%LPD*%
G01*
G04 APERTURE LIST*
%ADD10C,0.150000*%
%ADD11C,0.120000*%
G04 APERTURE END LIST*
D10*
X70062969Y-76613376D02*
X70462969Y-77813376D01*
X70462969Y-77813376D02*
X70862969Y-76613376D01*
X71777255Y-77013376D02*
X71777255Y-77813376D01*
X71491540Y-76556234D02*
X71205826Y-77413376D01*
X71205826Y-77413376D02*
X71948683Y-77413376D01*
X70062969Y-78488167D02*
X71548684Y-78488167D01*
X70120112Y-79631024D02*
X71491541Y-79631024D01*
X70120112Y-78831024D02*
X70120112Y-79745309D01*
X70120112Y-78831024D02*
X71491541Y-78831024D01*
X71491541Y-78831024D02*
X71491541Y-79745309D01*
X71034398Y-78488167D02*
X71034398Y-79288167D01*
X71034398Y-79288167D02*
X71491541Y-79288167D01*
X70577255Y-78488167D02*
X70577255Y-79002452D01*
X70577255Y-79002452D02*
X70462969Y-79231024D01*
X70462969Y-79231024D02*
X70348684Y-79345309D01*
X72691541Y-78545309D02*
X72691541Y-79516738D01*
X73320113Y-78488167D02*
X73320113Y-79745309D01*
X72062970Y-78488167D02*
X72062970Y-79173881D01*
X72062970Y-79173881D02*
X72005827Y-79573881D01*
X73605827Y-79116738D02*
X74234399Y-79116738D01*
X73891542Y-78373881D02*
X73891542Y-78602452D01*
X73891542Y-78773881D02*
X73948684Y-78945309D01*
X73948684Y-79173881D02*
X73948684Y-79516738D01*
X73948684Y-79745309D02*
X74120113Y-79745309D01*
X74234399Y-78659595D02*
X75091542Y-78659595D01*
X74691542Y-78373881D02*
X74691542Y-78659595D01*
X74862970Y-79745309D02*
X75091542Y-79745309D01*
X75091542Y-79516738D02*
X75091542Y-79688167D01*
X73720113Y-78602452D02*
X73720113Y-79345309D01*
X73720113Y-79345309D02*
X73662970Y-79745309D01*
X73720113Y-78602452D02*
X74120113Y-78602452D01*
X74120113Y-78602452D02*
X74120113Y-79745309D01*
X74405827Y-78945309D02*
X74405827Y-79345309D01*
X74405827Y-79345309D02*
X74348684Y-79631024D01*
X74405827Y-78945309D02*
X74862970Y-78945309D01*
X74862970Y-78945309D02*
X74920113Y-79688167D01*
X75377256Y-79173881D02*
X76862971Y-79173881D01*
X75491542Y-78488167D02*
X76748685Y-78488167D01*
X75662971Y-78716738D02*
X75720113Y-79002452D01*
X76120113Y-78488167D02*
X76120113Y-79745309D01*
X76577256Y-78716738D02*
X76462971Y-79002452D01*
X64245904Y-67744133D02*
X63484000Y-67744133D01*
X63864952Y-67363180D02*
X63864952Y-68125085D01*
X61483999Y-67744133D02*
X60722095Y-67744133D01*
X74951345Y-50975819D02*
X74951345Y-51785342D01*
X74951345Y-51785342D02*
X74998964Y-51880580D01*
X74998964Y-51880580D02*
X75046583Y-51928200D01*
X75046583Y-51928200D02*
X75141821Y-51975819D01*
X75141821Y-51975819D02*
X75332297Y-51975819D01*
X75332297Y-51975819D02*
X75427535Y-51928200D01*
X75427535Y-51928200D02*
X75475154Y-51880580D01*
X75475154Y-51880580D02*
X75522773Y-51785342D01*
X75522773Y-51785342D02*
X75522773Y-50975819D01*
X76522773Y-51975819D02*
X75951345Y-51975819D01*
X76237059Y-51975819D02*
X76237059Y-50975819D01*
X76237059Y-50975819D02*
X76141821Y-51118676D01*
X76141821Y-51118676D02*
X76046583Y-51213914D01*
X76046583Y-51213914D02*
X75951345Y-51261533D01*
X64335819Y-74144094D02*
X63335819Y-74144094D01*
X63335819Y-74144094D02*
X63335819Y-73905999D01*
X63335819Y-73905999D02*
X63383438Y-73763142D01*
X63383438Y-73763142D02*
X63478676Y-73667904D01*
X63478676Y-73667904D02*
X63573914Y-73620285D01*
X63573914Y-73620285D02*
X63764390Y-73572666D01*
X63764390Y-73572666D02*
X63907247Y-73572666D01*
X63907247Y-73572666D02*
X64097723Y-73620285D01*
X64097723Y-73620285D02*
X64192961Y-73667904D01*
X64192961Y-73667904D02*
X64288200Y-73763142D01*
X64288200Y-73763142D02*
X64335819Y-73905999D01*
X64335819Y-73905999D02*
X64335819Y-74144094D01*
X63431057Y-73191713D02*
X63383438Y-73144094D01*
X63383438Y-73144094D02*
X63335819Y-73048856D01*
X63335819Y-73048856D02*
X63335819Y-72810761D01*
X63335819Y-72810761D02*
X63383438Y-72715523D01*
X63383438Y-72715523D02*
X63431057Y-72667904D01*
X63431057Y-72667904D02*
X63526295Y-72620285D01*
X63526295Y-72620285D02*
X63621533Y-72620285D01*
X63621533Y-72620285D02*
X63764390Y-72667904D01*
X63764390Y-72667904D02*
X64335819Y-73239332D01*
X64335819Y-73239332D02*
X64335819Y-72620285D01*
X79010095Y-78559866D02*
X79772000Y-78559866D01*
X79391047Y-78940819D02*
X79391047Y-78178914D01*
X81772000Y-78559866D02*
X82533905Y-78559866D01*
D11*
%TO.C,C4*%
X61299267Y-62138000D02*
X61006733Y-62138000D01*
X61299267Y-63158000D02*
X61006733Y-63158000D01*
%TO.C,U3*%
X78504000Y-59936000D02*
X81724000Y-59936000D01*
X78504000Y-60136000D02*
X78504000Y-59936000D01*
X78504000Y-63156000D02*
X78504000Y-62956000D01*
X81724000Y-59936000D02*
X81724000Y-60136000D01*
X81724000Y-62956000D02*
X81724000Y-63156000D01*
X81724000Y-63156000D02*
X78504000Y-63156000D01*
X82554000Y-63286000D02*
X82074000Y-63286000D01*
X82314000Y-62956000D01*
X82554000Y-63286000D01*
G36*
X82554000Y-63286000D02*
G01*
X82074000Y-63286000D01*
X82314000Y-62956000D01*
X82554000Y-63286000D01*
G37*
%TO.C,U2*%
X62036200Y-54005000D02*
X63856200Y-54005000D01*
X62036200Y-54055000D02*
X62036200Y-54005000D01*
X62036200Y-57125000D02*
X62036200Y-57075000D01*
X63856200Y-54005000D02*
X63856200Y-54055000D01*
X63856200Y-57075000D02*
X63856200Y-57125000D01*
X63856200Y-57125000D02*
X62036200Y-57125000D01*
X64636200Y-57405000D02*
X64156200Y-57405000D01*
X64396200Y-57075000D01*
X64636200Y-57405000D01*
G36*
X64636200Y-57405000D02*
G01*
X64156200Y-57405000D01*
X64396200Y-57075000D01*
X64636200Y-57405000D01*
G37*
%TO.C,J5*%
X59793700Y-63898000D02*
X59793700Y-66658000D01*
X62443700Y-63898000D02*
X59793700Y-63898000D01*
X62443700Y-63898000D02*
X62443700Y-66658000D01*
X62443700Y-66658000D02*
X59793700Y-66658000D01*
X63713700Y-63898000D02*
X65093700Y-63898000D01*
X65093700Y-63898000D02*
X65093700Y-65278000D01*
%TO.C,filter1*%
X80060748Y-67670000D02*
X81483252Y-67670000D01*
X80060748Y-69490000D02*
X81483252Y-69490000D01*
%TO.C,R1*%
X81842224Y-69962500D02*
X81332776Y-69962500D01*
X81842224Y-71007500D02*
X81332776Y-71007500D01*
%TO.C,RFB2*%
X74453974Y-53538500D02*
X73944526Y-53538500D01*
X74453974Y-54583500D02*
X73944526Y-54583500D01*
%TO.C,filter2*%
X76947500Y-67564724D02*
X76947500Y-67055276D01*
X77992500Y-67564724D02*
X77992500Y-67055276D01*
%TO.C,U1*%
X74103250Y-49911000D02*
X77323250Y-49911000D01*
X74103250Y-50086000D02*
X74103250Y-49911000D01*
X74103250Y-53131000D02*
X74103250Y-52956000D01*
X77323250Y-49911000D02*
X77323250Y-50086000D01*
X77323250Y-52956000D02*
X77323250Y-53131000D01*
X77323250Y-53131000D02*
X74103250Y-53131000D01*
X73553250Y-50081000D02*
X73313250Y-49751000D01*
X73793250Y-49751000D01*
X73553250Y-50081000D01*
G36*
X73553250Y-50081000D02*
G01*
X73313250Y-49751000D01*
X73793250Y-49751000D01*
X73553250Y-50081000D01*
G37*
%TO.C,R8*%
X63717224Y-57553500D02*
X63207776Y-57553500D01*
X63717224Y-58598500D02*
X63207776Y-58598500D01*
%TO.C,D2*%
X62648000Y-76566000D02*
X62648000Y-71506000D01*
X62648000Y-76566000D02*
X65368000Y-76566000D01*
X65368000Y-76566000D02*
X65368000Y-71506000D01*
%TO.C,+  -*%
X75328000Y-74820000D02*
X75328000Y-77580000D01*
X80518000Y-74820000D02*
X75328000Y-74820000D01*
X80518000Y-74820000D02*
X80518000Y-77580000D01*
X80518000Y-77580000D02*
X75328000Y-77580000D01*
X81788000Y-74820000D02*
X83168000Y-74820000D01*
X83168000Y-74820000D02*
X83168000Y-76200000D01*
%TO.C,L1*%
X69856750Y-51433252D02*
X69856750Y-50910748D01*
X72076750Y-51433252D02*
X72076750Y-50910748D01*
%TO.C,R2*%
X59578900Y-60380724D02*
X59578900Y-59871276D01*
X60623900Y-60380724D02*
X60623900Y-59871276D01*
%TO.C,Cin1*%
X70959517Y-53583000D02*
X70666983Y-53583000D01*
X70959517Y-54603000D02*
X70666983Y-54603000D01*
%TO.C,Q2*%
X62006000Y-60110000D02*
X62056000Y-60110000D01*
X62006000Y-61630000D02*
X62006000Y-60110000D01*
X63006000Y-61630000D02*
X62006000Y-61630000D01*
X63176000Y-60110000D02*
X63956000Y-60110000D01*
X65076000Y-60110000D02*
X65126000Y-60110000D01*
X65126000Y-60110000D02*
X65126000Y-61630000D01*
X65126000Y-61630000D02*
X64126000Y-61630000D01*
X63946000Y-59570000D02*
X63616000Y-59810000D01*
X63616000Y-59330000D01*
X63946000Y-59570000D01*
G36*
X63946000Y-59570000D02*
G01*
X63616000Y-59810000D01*
X63616000Y-59330000D01*
X63946000Y-59570000D01*
G37*
%TO.C,R4*%
X70611276Y-59421500D02*
X71120724Y-59421500D01*
X70611276Y-60466500D02*
X71120724Y-60466500D01*
%TO.C,R5*%
X71120724Y-61707500D02*
X70611276Y-61707500D01*
X71120724Y-62752500D02*
X70611276Y-62752500D01*
%TO.C,J4*%
X69359000Y-64914000D02*
X69359000Y-67674000D01*
X72009000Y-64914000D02*
X69359000Y-64914000D01*
X72009000Y-64914000D02*
X72009000Y-67674000D01*
X72009000Y-67674000D02*
X69359000Y-67674000D01*
X73279000Y-64914000D02*
X74659000Y-64914000D01*
X74659000Y-64914000D02*
X74659000Y-66294000D01*
%TO.C,R12*%
X80527500Y-56637776D02*
X80527500Y-57147224D01*
X81572500Y-56637776D02*
X81572500Y-57147224D01*
%TO.C,Cout1*%
X79535750Y-52955752D02*
X79535750Y-51533248D01*
X81355750Y-52955752D02*
X81355750Y-51533248D01*
%TO.C,Rshunt1*%
X74690000Y-62727064D02*
X74690000Y-61272936D01*
X76510000Y-62727064D02*
X76510000Y-61272936D01*
%TO.C,filter3*%
X80060748Y-65130000D02*
X81483252Y-65130000D01*
X80060748Y-66950000D02*
X81483252Y-66950000D01*
%TO.C,Cout2*%
X81932750Y-53120267D02*
X81932750Y-52827733D01*
X82952750Y-53120267D02*
X82952750Y-52827733D01*
%TO.C,J6*%
X65980000Y-77470000D02*
X65980000Y-49470000D01*
X65980000Y-80070000D02*
X65980000Y-78740000D01*
X67310000Y-80070000D02*
X65980000Y-80070000D01*
X68640000Y-49470000D02*
X65980000Y-49470000D01*
X68640000Y-77470000D02*
X65980000Y-77470000D01*
X68640000Y-77470000D02*
X68640000Y-49470000D01*
%TO.C,J3*%
X69510000Y-58149000D02*
X69510000Y-56769000D01*
X70890000Y-58149000D02*
X69510000Y-58149000D01*
X72160000Y-55389000D02*
X79890000Y-55389000D01*
X72160000Y-58149000D02*
X72160000Y-55389000D01*
X72160000Y-58149000D02*
X79890000Y-58149000D01*
X79890000Y-58149000D02*
X79890000Y-55389000D01*
%TO.C,R11*%
X82037500Y-56627776D02*
X82037500Y-57137224D01*
X83082500Y-56627776D02*
X83082500Y-57137224D01*
%TO.C,J2*%
X83745000Y-77477000D02*
X83745000Y-49477000D01*
X83745000Y-80077000D02*
X83745000Y-78747000D01*
X85075000Y-80077000D02*
X83745000Y-80077000D01*
X86405000Y-49477000D02*
X83745000Y-49477000D01*
X86405000Y-77477000D02*
X83745000Y-77477000D01*
X86405000Y-77477000D02*
X86405000Y-49477000D01*
%TO.C,RFB1*%
X77802974Y-53538500D02*
X77293526Y-53538500D01*
X77802974Y-54583500D02*
X77293526Y-54583500D01*
%TO.C,D1*%
X59366400Y-55842000D02*
X59366400Y-58302000D01*
X59366400Y-58302000D02*
X60836400Y-58302000D01*
X60836400Y-58302000D02*
X60836400Y-55842000D01*
%TD*%
M02*
