M48
; DRILL file {KiCad 9.0.7} date 2026-03-31T12:49:52+0200
; FORMAT={-:-/ absolute / metric / decimal}
; #@! TF.CreationDate,2026-03-31T12:49:52+02:00
; #@! TF.GenerationSoftware,Kicad,Pcbnew,9.0.7
; #@! TF.FileFunction,Plated,1,2,PTH
FMAT,2
METRIC
; #@! TA.AperFunction,Plated,PTH,ViaDrill
T1C0.300
; #@! TA.AperFunction,Plated,PTH,ComponentDrill
T2C1.000
%
G90
G05
T1
X64.842Y-61.838
X65.532Y-61.722
X72.136Y-53.34
X72.39Y-51.626
X73.66Y-63.5
X77.978Y-64.008
X79.248Y-54.864
X82.004Y-54.864
T2
X61.174Y-65.278
X63.714Y-65.278
X67.31Y-50.8
X67.31Y-53.34
X67.31Y-55.88
X67.31Y-58.42
X67.31Y-60.96
X67.31Y-63.5
X67.31Y-66.04
X67.31Y-68.58
X67.31Y-71.12
X67.31Y-73.66
X67.31Y-76.2
X67.31Y-78.74
X70.739Y-66.294
X70.89Y-56.769
X73.279Y-66.294
X73.43Y-56.769
X75.97Y-56.769
X76.708Y-76.2
X78.51Y-56.769
X79.248Y-76.2
X81.788Y-76.2
X85.075Y-50.807
X85.075Y-53.347
X85.075Y-55.887
X85.075Y-58.427
X85.075Y-60.967
X85.075Y-63.507
X85.075Y-66.047
X85.075Y-68.587
X85.075Y-71.127
X85.075Y-73.667
X85.075Y-76.207
X85.075Y-78.747
M30
